<?xml version="1.0" encoding="UTF-8" standalone="no"?>
<svg
   id="Layer_1"
   viewBox="0 0 1950.63 179.99999"
   version="1.1"
   sodipodi:docname="wrdguessr_logo.svg"
   inkscape:version="1.2.2 (732a01da63, 2022-12-09)"
   width="1950.63"
   height="180"
   xmlns:inkscape="http://www.inkscape.org/namespaces/inkscape"
   xmlns:sodipodi="http://sodipodi.sourceforge.net/DTD/sodipodi-0.dtd"
   xmlns="http://www.w3.org/2000/svg"
   xmlns:svg="http://www.w3.org/2000/svg">
  <sodipodi:namedview
     id="namedview24"
     pagecolor="#505050"
     bordercolor="#ffffff"
     borderopacity="1"
     inkscape:showpageshadow="0"
     inkscape:pageopacity="0"
     inkscape:pagecheckerboard="1"
     inkscape:deskcolor="#505050"
     showgrid="false"
     inkscape:zoom="0.87725421"
     inkscape:cx="1483.6064"
     inkscape:cy="125.39125"
     inkscape:window-width="3440"
     inkscape:window-height="1377"
     inkscape:window-x="1912"
     inkscape:window-y="-8"
     inkscape:window-maximized="1"
     inkscape:current-layer="Layer_1" />
  <defs
     id="defs16">
    <style
       id="style14">.cls-1{fill:#fff;}.cls-2{fill:#d1d3d4;}</style>
  </defs>
  <g
     id="Layer_2"
     transform="translate(0,-28)">
    <path
       class="cls-2"
       d="M 0.45,46.12 C 152.35,43.8 313.86,43.98 466,41.03 c 0.44,-0.04 0.32,-0.01 0.5,-0.05 l 0.83,-0.17 c 6.24,-1.33 12.89,-1.6 19.05,0.77 8.45,3.12 13.79,10.91 16.75,19 3.58,9.77 5.6,19.54 7.7,29.55 3,14.65 5.42,29.31 8.53,43.85 1.1,4.91 2.19,10.35 4.26,14.77 0.2,0.38 0.34,0.36 -0.21,-0.05 -0.25,-0.25 -1.54,-0.75 -2.52,-0.5 -0.91,0.2 -1.18,0.5 -1.29,0.57 -0.11,0.09 -0.06,0.07 0,-0.02 0.07,-0.08 0.16,-0.22 0.27,-0.39 3.29,-6.12 4.82,-13.12 6.91,-19.87 4.06,-14.31 7.59,-28.97 12.27,-43.22 2.56,-6.83 7.35,-25.29 17.98,-19.61 6.34,4.13 8.26,16.78 9.87,23.55 2.98,14.8 4.74,29.48 7.5,44.15 1.02,5.04 1.97,10.87 4.35,15.19 -0.04,-0.03 -0.17,-0.17 -0.54,-0.34 -0.34,-0.18 -1.05,-0.31 -1.52,-0.23 -0.97,0.16 -1.03,0.45 -0.92,0.3 1.2,-1.37 2.11,-3.19 2.95,-4.94 2,-4.23 3.79,-8.85 5.59,-13.45 6.25,-16.25 12.63,-32.79 20.5,-48.43 4.09,-8.01 9.84,-19.84 20.75,-18.56 7.55,0.86 12.96,7.36 15.51,13.84 1.73,4.65 0.32,10.31 -1.62,14.21 -4.54,9.51 -11.7,15.75 -15.85,25.02 -6.49,15.1 -6.98,41.99 2.68,55.55 0.37,0.49 0.28,0.19 -0.88,-0.57 -0.39,-0.18 -0.18,-0.07 -0.04,-0.05 3.04,0.63 6.17,0.79 9.38,1.05 19.58,1.19 39.51,1.27 59.14,0.68 4.92,-0.17 9.83,-0.41 14.68,-0.8 4.28,-0.41 9.32,-0.72 13.31,-2.05 0.14,-0.05 0.23,-0.11 0.17,-0.08 0.11,-0.16 -0.64,0.58 -0.51,0.46 2.12,-2.94 2.83,-6.49 3.55,-10.15 2.73,-16.93 0.59,-34.27 1.3,-51.59 0.05,-16 16.34,-24.55 30.43,-25.66 12.3,-1.6 29.19,5.8 18.58,19.64 -0.42,0.56 -0.84,1.09 -1.25,1.59 l -1.12,1.39 c -0.57,0.7 -0.9,1.39 -0.92,1.54 -0.01,0.08 0,0 0,0 0,0 0,0.04 0.04,0.13 0.22,0.5 -0.14,-0.42 -0.67,-0.92 -0.36,-0.34 -0.52,-0.38 -0.55,-0.4 -0.01,0 0.05,0.02 0.18,0.05 5.55,0.77 11.83,-0.81 16.82,-3.09 9.05,-4 13.74,-14.4 23.04,-18.71 2.9,-1.32 6.13,-2.25 9.33,-2.09 6.84,0.41 14.79,4.89 15.6,12.27 0.26,5.9 -3.21,11.86 -8.88,13.46 -3.97,1.19 -8.48,0.44 -11.77,0.93 -7.46,1.12 -11.65,12.06 -12.39,18.69 -0.59,5.42 0.49,10.35 3.71,14.34 4.25,5.89 10.94,10.09 18.36,9.52 9.88,-0.43 20.4,-8.34 22.17,-18.19 0.29,-22.41 -3.34,-44.45 -1.44,-67.12 0.63,-6.46 1.95,-13.59 5.24,-19.66 0.58,-0.95 0.56,-1.11 1.41,-2.26 0.97,-1.17 2.01,-1.83 2.91,-2.31 3.15,-1.56 5.84,-1.75 8.97,-2.1 5.12,-0.44 10.24,-0.19 15.33,-0.12 19.84,0.14 39.65,-1.67 59.57,-1.72 6.18,0.33 21.94,-1.04 22.05,8.12 -0.15,2.92 -1.93,4.82 -3.86,6.38 -1.73,1.39 -3.49,3.04 -5.31,4.74 -4.83,4.22 -9.75,9.89 -16.81,10.3 -4.13,0.23 -7.27,-3.15 -10.22,-4.6 -4.39,-1.96 -10.03,-1.74 -14.43,-0.03 -2.77,1.14 -5.37,3.31 -7.64,5.52 -0.64,0.67 -1.89,1.8 -2.52,2.49 -11.8,13.14 -13.87,35.93 -14.42,53.23 -0.24,6.56 0.23,13.45 3.82,19.11 1.29,2.13 2.88,4.06 4.75,5.38 1.03,0.49 2.17,0.68 3.5,0.88 11.22,1.2 24.25,-1.6 32.23,-9.88 5.78,-6.12 11.01,-13.83 13.57,-21.72 0.72,-2.73 1.6,-5.77 0.09,-7.8 -2.88,-2.27 -8.16,-1.59 -11.93,-0.9 -12.77,2.81 -25.98,10.79 -31.72,22.84 -7.3,15.54 3.83,37.02 20.96,39.35 6.78,0.97 11.35,-1.69 15.71,-6.87 3.52,-4.18 8.78,-7.75 14.66,-5.19 4.23,1.89 6.91,5.69 9.7,8.36 2.73,2.64 4.65,4.05 8.17,3.7 l 1.87,-0.06 c 5,-0.16 9.98,-0.26 14.96,-0.35 49.08,-0.92 98.27,-0.71 147.32,-2.15 4.03,0 8.37,0.15 12.07,-1.1 2.1,-0.95 3.3,-2.69 4.5,-5.03 2.49,-5.48 3.63,-13.58 1.28,-19.15 -0.11,-0.2 -0.19,-0.22 0,-0.08 0.1,0.08 0.26,0.17 0.5,0.25 0.41,0.11 0.15,0.04 -0.05,0.02 -0.38,-0.08 -1.44,-0.02 -1.52,0.16 -0.04,0.03 -0.21,0.24 -0.31,0.8 -0.1,0.43 -0.08,1.06 -0.05,1.57 -0.01,-0.21 -0.13,-0.63 -0.22,-0.78 -0.2,-0.37 -0.23,-0.29 -0.06,-0.17 1.85,1.24 4.21,1.82 6.81,2.44 3.92,0.86 8.1,1.32 12.15,1.51 5.13,0.19 10.45,-0.35 15.35,-1.49 4.15,-1.11 9.56,-2.74 10.29,-7.16 0.79,-6.53 -4.33,-13.69 -9.79,-16.62 -1.27,-0.79 -4.6,-1.44 -6.11,-1.85 -5,-1.27 -9.85,-2.41 -14.82,-4.2 -2.86,-1.07 -6,-2.47 -8.17,-4.82 -6.02,-6.35 -3.27,-15.19 3.48,-19.43 9.08,-6.01 24.95,-11.98 35.66,-9.08 8.26,2.4 13.19,16.94 16.72,23.95 3.48,7.62 8.75,19.46 12.53,26.75 1.48,2.66 2.61,5.05 4.7,6.66 7.87,5.63 19.54,6.61 28.43,3.1 2.54,-1.09 4.74,-2.44 6.23,-4.57 0.73,-2.15 0.2,-4.76 -0.76,-7.27 -1.02,-2.81 -2.86,-5.75 -4.82,-8.02 -2.08,-2.08 -4.78,-3.18 -7.79,-4.29 -7.25,-2.52 -15.59,-4.12 -23.15,-6.54 -8.19,-2.11 -9.35,-11.04 -5.42,-17.25 3.17,-5.29 7.92,-8.47 13.23,-11.04 4.51,-2.36 9.17,-5.31 14.42,-6.65 2.81,-0.76 5.68,-1.07 8.45,-1.13 2.74,-0.07 5.41,0.12 8.09,0.46 l 1.96,0.26 c 0.2,0.02 0.99,0.14 1.59,0.33 0.64,0.2 1.28,0.47 1.89,0.84 8.09,5.28 3.8,19.38 1.48,26.72 -1.3,3.74 -3.31,7.43 -5.2,10.78 -4.85,8.53 -18.07,29.59 -23.48,38.27 -4.09,7.02 -9,14.08 -11.68,21.65 -0.2,0.75 -0.15,1.28 -0.12,1.33 -0.05,-0.06 0,0.02 0.19,0.13 4.13,1.78 9.35,0.41 13.29,-1.88 2.5,-1.35 4.98,-3.35 7.74,-4.87 0.89,-0.49 1.32,-0.62 1.9,-0.89 l 3.33,-1.51 c 6.22,-2.91 13.91,-6.26 19.65,-10.01 1.2,-0.8 2.39,-1.54 3.28,-2.52 0.16,0.11 0.03,-0.8 -0.12,1.01 0.08,0.4 -0.2,-0.5 -0.26,-0.71 -0.11,-0.37 -0.2,-0.76 -0.28,-1.15 -0.85,-3.29 0.99,-7.35 4.01,-8.97 0.81,-0.44 0.31,-0.14 0.88,-0.49 1.26,-0.64 2.56,-0.89 3.86,-0.93 2.43,-0.06 4.84,0.48 6.89,1.94 1.57,1.05 2.84,3.47 2.42,5.42 -0.15,0.99 -0.51,1.81 -0.92,2.51 -0.82,1.39 -1.83,2.39 -2.85,3.31 -0.26,0.21 -0.44,0.43 -1.03,0.82 -0.47,0.28 -0.86,0.43 -1.25,0.55 -2.45,0.7 -5,0.82 -7.5,0.18 -0.42,-0.15 -0.85,-0.26 -1.44,-0.76 -0.77,-0.85 -0.55,-0.8 -0.81,-1.16 l -0.45,-0.8 c 5.1,-3.31 1.66,-0.46 2.92,-0.99 l 0.45,0.81 0.45,0.8 c 0.79,0.7 -5,1.22 -2.21,-0.24 2.48,-3.15 6.18,-4.87 9.37,-7.12 2.07,-1.36 4.13,-2.9 6.37,-4.13 6.66,-3.49 13.21,-6.84 19.49,-10.93 8.36,-5.26 16.82,-10.33 25.22,-15.46 4.15,-2.59 8.24,-5.27 12.16,-8.1 5.4,-4.02 11.24,-8.26 14.49,-13.79 0.36,-0.71 0.44,-1.28 0.43,-1.43 -0.01,-0.05 -0.05,-0.1 0.04,0.11 0.06,0.13 0.1,0.13 -0.03,0.03 -0.24,-0.21 -0.94,-0.6 -1.78,-0.88 -4.99,-1.5 -10.77,-1.59 -15.9,-0.55 -19.32,4.03 -36.64,24.02 -18.65,40.71 6.51,6.06 15.12,10.5 23.96,12.11 12.83,2.44 35.84,2.88 41.6,-10.63 1.89,-4.03 2.82,-8.88 3.21,-13.45 0.76,-7.33 0.96,-14.63 1.24,-22.07 0.09,-3.19 0.26,-6.35 0.52,-9.6 0.46,-4.43 3.76,-8.27 7.72,-9.95 4.05,-1.79 8.29,-1.93 12.58,-1.78 4.83,0.06 9.9,-0.11 15.12,0.26 4.08,0.36 9.3453,9.898012 13.1753,12.218012 4.7695,3.873624 2.4255,-0.908406 -20.2977,18.112258 -4.7252,3.95533 -10.4789,21.19564 -3.5646,19.56946 2.0658,0.14849 -5.2293,2.93738 -4.9771,1.91133 2.3881,0.8068 -1.1476,2.24965 -0.6823,0.89134 -1.9436,0.18302 -2.009,-0.54 -1.629,-0.36 0.67,0.31 -1.0304,0.48924 0.02,0.69924 1.06,0.21 5.8172,-0.94982 6.9672,-0.82982 4.63,0.46 9.53,0.43 14.36,0.24 14.73,-1.07 29.97,-1.91 44.7,-2.34 144.17,-3.66 317.203,2.37138 461.323,5.82133 l 0.075,7.62125 c -143.98,0.25023 -314.1353,-6.7984 -458.7399,-3.71444 -10.4576,-0.44605 -21.7891,0.56848 -31.4936,0.15093 -8.3964,0.0655 -20.6745,0.60053 -30.9845,-0.41907 -3.03,-0.34 -5.42,-0.65 -8.42,-1.9 -0.19,-0.05 -1.42,-0.68 -1.96,-1.37 -4.37,-5.03 6.5972,-30.85364 30.491,-43.607286 0.18,-0.92 1.1276,-2.414534 1.0776,-2.434534 -0.03,-0.05 0.08,0.13 0,0.02 -0.23,-0.33 -0.56,-0.59 -0.92,-0.81 -2.72,-1.46 -5.79,-1.75 -9.08,-2.03 -4.71,-0.33 -9.58,-0.17 -14.69,-0.23 -4.33,-0.15 -11.83,-0.17 -12.74,5.13 -0.92,13.12 -0.49,26.16 -2.75,39.28 -0.74,5.49 -2.08,11.78 -6.36,15.88 -13.59,13.87 -45.77,12.1 -61.95,3.57 -9.78,-5.08 -19.1,-12.3 -22.77,-23.46 -5.56,-17.96 8.83,-34.11 24.65,-40.09 5.13,-2.04 10.73,-3.25 16.27,-3.19 9.78,-0.18 25.3,3.36 18.98,16.9 -6.4,12.08 -31.31,25.82 -43.67,32.24 -6.74,3.37 -13.69,6.24 -20.7,9 -4.63,1.87 -9.52,3.23 -14.07,5.13 -4.97,2.14 -9.58,5.55 -13.49,9.28 -0.27,0.28 -0.76,0.81 -0.89,1.1 2.31,-1.02 -2.95,0.76 -2.68,0.42 l -0.52,-0.79 -0.51,-0.79 c 1.06,-0.86 -3.09,0.81 2.24,-2.14 l 0.51,0.79 c 0.09,0.15 0.55,0.81 0.23,0.38 -0.12,-0.09 0.05,0 0.23,0.04 0.19,0.04 0.43,0.07 0.68,0.09 1.66,0.07 3.67,-0.09 5.14,-0.89 -0.06,0.06 0.17,-0.2 0.37,-0.41 1.03,-1.1 1.85,-2.26 1.99,-3.54 0,-0.25 -0.07,-0.35 -0.16,-0.47 -0.16,-0.23 -0.79,-0.66 -1.64,-0.88 -1.23,-0.32 -3.08,-0.44 -4.23,0.2 0.05,-0.01 -0.98,0.6 -0.73,0.44 -1.97,1.21 -2.53,3.03 -1.82,5.41 -0.14,2.44 -0.76,2.04 -0.98,2.62 -1.21,1.29 -2.61,2.36 -3.88,3.41 -7.42,5.81 -14.97,11.52 -23,16.39 -2.49,1.84 -4.99,3.54 -7.97,5.15 -3.71,2.04 -8.2,3.69 -12.67,3.8 -5.27,0.2 -12.46,-1.54 -14.07,-7.59 -0.99,-3.99 0.17,-7.16 1.55,-10.33 1.12,-2.49 2.33,-4.76 3.57,-6.99 2.48,-4.46 5.06,-8.75 7.68,-13.02 l 15.77,-25.32 c 6.03,-10.07 13.12,-20.01 14.51,-31.88 0.34,-1.97 0.4,-4.41 -0.22,-6.07 -0.03,-0.04 0.06,0.09 0.21,0.17 0.07,0.04 0.14,0.08 0.19,0.09 0,0.01 0.18,0.03 -0.24,-0.03 -13.97,-2.05 -17.35,0.79 -29.06,7 -3.59,1.85 -7.65,4.8 -8.68,8.73 -0.15,0.62 -0.09,1.08 -0.03,1.21 0.07,0.15 0,0.08 0.2,0.22 0.05,0.03 0.12,0.06 0.21,0.09 0.04,0.03 0.5,0.16 0.73,0.24 7.82,2.49 15.45,3.86 23.47,6.65 3.93,1.43 8.34,3.34 11.45,6.7 6.65,7.65 13.01,21.58 3.79,29.78 -11.77,10.46 -32.76,9.59 -45.1,0.6 -3.41,-2.38 -5.56,-6.54 -7.32,-9.72 -2.42,-4.6 -4.49,-9.14 -6.58,-13.68 -2.02,-4.72 -7.31,-15.81 -9.3,-20.3 -2.06,-4.18 -4.24,-9.36 -7.67,-12.17 -2.82,-0.85 -5.98,-0.45 -9.14,0.13 -6.5,1.36 -13.35,3.92 -18.85,7.59 -5.32,3.59 -2.67,6.34 2.61,8.14 4.38,1.59 9.23,2.73 13.86,3.9 l 3.64,0.92 c 1.41,0.36 3.13,0.97 4.44,1.68 9.76,5.24 17.38,17.62 14.03,28.76 -4.45,12.76 -25,14.35 -36.46,13.72 -6.9,-0.65 -20.94,-1.73 -24.72,-8.72 -2.11,-5 -0.08,-12.06 5.41,-14.25 4.31,-1.74 10.02,-0.84 12.29,3.46 5.3,9.8 2.26,28.45 -6.67,35.36 -5.63,4.32 -13.21,3.71 -19.8,3.83 -48.73,1.44 -97.67,1.2 -146.37,2.12 -5.57,0.11 -11.15,0.22 -16.7,0.41 -9.27,0.9 -14.49,-6.04 -19.96,-11.5 -0.95,-0.8 -1.44,-1.26 -2.18,-1.38 -0.19,-0.03 -0.28,0.01 -0.41,0.01 -1.03,0.27 -2.56,1.98 -3.59,3.08 -3.46,4.08 -8.88,8.5 -14.61,9.45 -14.67,2.89 -28.89,-6.56 -35.47,-19.14 -8.61,-15.93 -5.12,-34.11 8.23,-46.15 8.04,-7.37 17.72,-12.38 28.41,-14.66 9.38,-2.13 22.8,-0.75 23.61,11.31 0.54,12.36 -9.5,26.72 -17.66,35.14 -10.47,10.49 -29.73,14.69 -43.79,10.89 -7.07,-2.56 -11.69,-10.68 -13.85,-17.4 -1.67,-5.24 -1.76,-10.79 -1.65,-16.18 0.09,-5.1 0.38,-10.2 0.92,-15.28 1.9,-15.79 5.2,-32.94 16.78,-44.87 3.73,-3.7 7.42,-7.26 12.49,-9.36 8.29,-3.26 18.47,-2.86 25.71,2.52 1.07,0.76 1.92,1.32 2.16,1.38 0.26,0.06 0.32,0.05 0.75,-0.07 3.88,-1.51 6.9,-4.92 10.13,-7.75 1.77,-1.81 4.82,-4.3 6.53,-5.79 -0.06,0.13 -0.25,0.47 -0.27,1.15 -0.1,0.89 0.57,2.15 1.12,2.46 0.1,0.05 -0.21,-0.11 -0.56,-0.21 -4.24,-1.04 -9.05,-0.98 -13.51,-1.05 -19.84,0.06 -39.71,1.86 -59.64,1.72 -6.3,-0.04 -14.75,-0.66 -20.01,1.14 0.2,-0.28 -0.02,0.05 -0.13,0.27 -0.64,1.12 -1.24,2.26 -1.7,3.51 -1.57,4.01 -2.38,8.61 -2.84,13.3 -1.62,19.4 1.11,39.34 1.43,59.04 -0.02,1.26 0.1,4.47 0.06,5.7 0.26,3.94 -1.29,8.07 -2.94,11.06 -8.24,15.43 -29.5,23.29 -44.73,13.34 -7.23,-4.77 -13.23,-12.25 -14.56,-20.9 -2.19,-13.07 5.3,-33.22 19.94,-35.35 4.08,-0.64 7.25,0.1 10.48,-0.64 1.25,-0.33 1.64,-1.32 2.1,-2.36 0.3,-0.79 0.39,-1.42 0.28,-1.87 -0.44,-0.86 -1.23,-1.52 -2.16,-2.14 -7.7,-4.88 -14.71,2.78 -19.72,8.29 -3.61,3.9 -8.08,7.7 -13.03,10.04 -6.59,3.19 -21.08,6.79 -26.72,1.8 -3.68,-3.94 -2.07,-9.6 0.7,-12.87 1.15,-1.44 2.98,-3.55 3.65,-5.06 0.11,-0.27 0.14,-0.44 0.14,-0.46 0,-0.03 0,0.1 0.03,0.17 0.03,0.07 0.03,0.04 -0.08,-0.09 -0.1,-0.12 -0.35,-0.32 -0.63,-0.53 -0.31,-0.2 -0.66,-0.42 -1.08,-0.63 -1.32,-0.67 -2.4,-0.99 -3.95,-1.24 -9.65,-1.28 -24.44,2.7 -27.84,12.58 -0.96,3.69 -0.7,7.66 -0.78,11.58 0.06,9.8 0.49,19.83 0.14,29.99 -0.48,9.18 -0.81,19.1 -5.36,27.56 -0.39,0.69 -0.85,1.37 -1.37,2.05 -0.23,0.4 -1.47,1.54 -1.89,1.7 -0.59,0.36 -1.06,0.57 -1.49,0.75 -5.46,1.95 -10.49,2.13 -16.04,2.7 -15.05,1.15 -30.07,1.25 -45.11,1.14 -13.26,-0.29 -26.59,-0.2 -39.85,-2.06 -0.36,-0.07 -0.75,-0.15 -1.19,-0.26 -0.47,-0.13 -0.85,-0.19 -1.8,-0.64 -1.76,-1 -2.12,-1.94 -2.16,-1.9 l -0.69,-0.9 c -9.05,-13.39 -9.86,-33.11 -7.55,-48.51 1.04,-6.49 2.96,-13.15 6.14,-19.1 1.92,-3.41 4.28,-6.75 6.54,-9.8 2.91,-4 5.79,-7.9 7.63,-11.77 1.73,-3.57 2.28,-6.73 -0.01,-9.8 -1.86,-2.85 -3.63,-4.96 -6.81,-5.39 l -0.6,-0.05 c -0.16,0 -0.19,-0.01 -0.3,0 -0.36,0.02 -0.87,0.19 -1.5,0.57 -2.34,1.6 -4.19,4.13 -5.77,6.81 -2.3,4.09 -4.54,8.63 -6.54,12.9 -6.33,13.41 -11.59,27.12 -16.95,41.04 -1.83,4.66 -3.61,9.32 -5.86,14.08 -1.24,2.71 -2.71,5.39 -4.93,7.64 -1.01,1 -2.41,1.83 -4.13,2.07 -1.94,0.33 -4.2,-0.68 -5.38,-1.92 -3.41,-3.54 -4.09,-8.27 -5.33,-12.48 -1.77,-7.4 -2.93,-14.9 -4.14,-22.34 -1.57,-9.84 -3.01,-19.65 -4.94,-29.21 -1.44,-6.11 -2.32,-12.31 -5.5,-17.4 -0.17,-0.23 -0.31,-0.3 -0.18,-0.22 0.06,0.03 0.22,0.13 0.44,0.17 0.26,0.05 0.4,0.07 0.83,0.02 0.71,-0.13 0.77,-0.34 0.66,-0.21 -0.25,0.2 -0.87,1.01 -1.36,1.85 -2.11,3.83 -3.88,8.55 -5.28,12.88 -4.61,14.09 -8.09,28.46 -12.15,42.83 -1.37,4.83 -2.77,9.65 -4.51,14.54 -0.89,2.69 -1.93,5.05 -3.44,7.68 -0.55,0.91 -1.13,1.64 -2.05,2.48 -0.58,0.47 -1.39,1.12 -2.91,1.45 -3.24,0.57 -5.58,-1.58 -6.81,-3.87 -1.74,-3.18 -2.61,-6.69 -3.49,-9.88 -1.89,-7.35 -3.27,-14.78 -4.7,-22.17 -2.8,-14.63 -5.28,-29.21 -8.78,-43.61 -1.31,-5.32 -2.71,-10.47 -4.73,-15.31 -2.1,-5.22 -5.54,-10.22 -10.92,-12.23 -4.34,-1.68 -9.4,-1.35 -14,-0.35 l -1,0.2 c -0.43,0.09 -1.17,0.16 -1.35,0.16 -1.4,0.12 -2.65,0.16 -3.93,0.22 -62.21,1.44 -161,1.71 -223.78,2.41 -79.51,0.7 -159.02,1.51 -238.53,2.45 l -0.11,-9 h 0.01 z"
       id="path18"
       sodipodi:nodetypes="ccccccccccccccccccccccccccccccccccccccccccccccccccccccccccccccccccccccccccccccccccccccccccscccccccccccccccccccccccccccccccccccccccccccccccscccccccccccccccccccccccccccccccccccccccccccccscccccccccccccccccccccccccccccccccccccccccccccccccccccccccsccccccccccccccccccccccccsccccccccccccccccccccccccccccccccccccccccccccccccccccccccsscccccccccccccccccccccccccccccccccccccccccccccccccccccccccccccccc" />
    <path
       class="cls-1"
       d="m 0.22,37.82 c -0.16,0.27 470.32,-2.59 464.93,-1.98 6.02,-1.73 12.26,-2.6 18.6,-1.32 6.59,1.19 12.83,5.91 15.94,11.79 3.04,5.4 3.99,11.64 4.87,17.43 2.57,16.41 4.81,32.9 7.59,49.23 1.39,8.08 2.84,16.15 4.86,24.04 0.81,2.97 1.57,5.92 2.91,8.23 0.05,0.08 0.1,0.1 -0.12,-0.1 -0.1,-0.08 -0.31,-0.25 -0.65,-0.39 -0.35,-0.16 -0.94,-0.32 -1.58,-0.28 -0.61,0.03 -1.03,0.2 -1.3,0.34 -0.26,0.13 -0.38,0.23 -0.45,0.29 1.42,-1.98 2.51,-5.29 3.61,-8.21 1.76,-5.06 3.32,-10.34 4.85,-15.63 3.06,-10.59 5.95,-21.31 9.24,-32.02 2.8,-8.31 4.92,-16.58 9.74,-24.32 1.43,-2.04 2.41,-3.39 5.28,-4.6 1.75,-0.75 4.68,-0.26 6.1,0.91 2.81,2.05 3.71,4.93 4.75,7.58 3.06,9.58 4.19,19.61 5.6,29.44 1.92,13.71 3.12,27.31 6.03,40.64 0.43,2.08 1.27,4.89 2.16,6.56 0.14,0.3 0.39,0.43 -0.08,0.06 -0.23,-0.17 -0.84,-0.44 -1.53,-0.45 -0.71,0 -1.08,0.18 -1.25,0.27 1.72,-1.86 3.3,-5.28 4.78,-8.23 2.31,-4.85 4.47,-9.94 6.65,-15.02 6.58,-15.4 13.25,-30.73 21.23,-45.55 3,-5.29 5.35,-10.47 9.97,-15 6.92,-6.91 15.66,-4.97 20.97,2.48 4.04,5.59 6.04,12.77 4.32,19.59 -2.35,8.94 -8.98,15.02 -13.48,22.48 -8.46,14.39 -12.6,36.33 -8.71,52.52 0.8,2.77 1.7,5.17 3.28,7.29 -0.21,-0.29 -0.45,-0.49 -0.52,-0.54 5.68,1.79 13.17,2.26 19.88,2.79 10.89,0.74 21.9,1 32.89,1.01 10.98,-0.02 22.01,-0.26 32.8,-1.16 4.1,-0.4 9.43,-0.84 12.93,-2.09 -0.08,0.06 -0.19,0.13 -0.46,0.42 -0.21,0.26 0.05,-0.08 0.05,-0.08 2.54,-3.44 2.82,-8.88 3.24,-13.35 0.31,-5.25 0.2,-10.71 0.1,-16.24 -0.1,-5.54 -0.22,-11.16 0,-16.89 0.36,-8.67 1.42,-18.8 6.66,-26.42 5.49,-7.88 14.29,-12.83 23.34,-15.1 6.45,-1.47 12.9,-2.04 19.42,0.68 10.51,4.64 9.74,12.82 2.93,20.35 l -0.33,0.4 c -0.28,0.33 -0.41,0.53 -0.63,0.85 -0.64,0.78 -1.04,2.33 -1.03,3.07 0,0.08 0.01,0.15 0,0.08 0,0 -0.03,-0.11 -0.07,-0.19 -0.12,-0.36 -0.63,-1.11 -0.95,-1.33 -0.7,-0.58 -0.96,-0.56 -1.01,-0.6 3.24,0.18 7.27,-0.88 10.66,-1.84 4.93,-1.44 9.2,-3.16 13.07,-6.42 4.31,-3.49 7.31,-7.91 11.95,-11.63 5.33,-4.41 13.34,-7.04 20.08,-4.39 4.38,1.61 8.77,4.77 10.2,9.6 1.32,5.78 -1.58,12.18 -6.83,14.85 -6.6,3.25 -13.65,-0.7 -18.83,4.13 -9.79,8.24 -16.58,26.82 -4.37,35.87 3.6,2.89 8.2,4.92 12.89,5.88 14.08,3.06 20.54,-5.29 22.69,-18.16 0.41,-2.15 0.28,-5.38 0.29,-7.54 -0.05,-5.44 -0.26,-10.92 -0.51,-16.43 -0.54,-16.77 -2.62,-34.33 1.77,-51.19 1.06,-3.76 2.64,-7.71 4.91,-11.04 3.68,-5 10.1,-7.51 15.84,-8.38 3.04,-0.47 6.1,-0.56 9.15,-0.47 24.99,0.52 50.16,-2.38 75.22,0.04 4.85,0.72 9.74,1.21 14.26,4.35 4.46,3.13 4.77,9 1.68,13.15 -3.21,4.38 -7.96,7.12 -12.4,9.61 -3.22,1.73 -6.5,3.27 -9.84,4.67 l -1.01,0.41 c -3.51,1.7 -7.71,1.12 -10.27,-2.02 -2.49,-3.06 -3.44,-6.36 -7.8,-6.39 -2.98,-0.14 -6.44,-0.1 -9.12,0.41 -4.51,0.86 -8.76,3.62 -12.47,6.43 -15.31,12.97 -18.33,38.23 -18.31,57.31 0,9.71 1.92,19.25 10.12,25.21 11.3,6.43 29.76,-6.23 37.65,-14.76 4.83,-5.16 13.71,-16.72 11.79,-23.84 -0.56,-1.24 -1.53,-1.61 -2.99,-2.08 -1.83,-0.52 -4.18,-0.65 -6.53,-0.5 -13.95,1.11 -30,10.19 -34.46,23.52 -3.03,8.93 -1.79,19.68 2.69,28.24 3.97,7.78 11.9,14.62 20.8,12.21 5.99,-2.15 8.11,-9.47 13.74,-13.25 4.96,-3.8 12.89,-2.88 17.52,0.87 2.3,1.79 4.66,4.1 6.59,6.15 0.41,0.4 0.82,0.76 1,0.9 0.08,0.06 0.1,0.04 -0.12,-0.05 -0.15,-0.07 -0.33,-0.13 -0.68,-0.19 -0.35,-0.07 -1.01,-0.03 -0.56,-0.04 6.96,-0.33 14.04,-0.5 20.95,-0.6 47.12,-0.68 94.2,0.19 141.25,-0.51 5.4,-0.13 10.81,-0.13 16.14,-0.68 3.13,-0.47 6.55,-0.55 9.09,-2.41 5.2,-4.68 6.94,-14.91 5.46,-21.45 -0.11,-0.44 -0.29,-0.81 -0.38,-0.97 0.03,0.04 0.12,0.15 0.32,0.29 0.19,0.13 0.54,0.31 0.89,0.38 0.29,0.04 0,0.01 0.04,0.01 -1.79,-0.16 -4.36,2.2 -4.3,4.17 0.01,0.2 -0.04,-0.4 -0.11,-0.58 -0.16,-0.54 -0.41,-0.89 -0.55,-1.05 -0.3,-0.32 -0.19,-0.14 0.09,-0.02 1.55,0.78 4.42,1.31 6.41,1.61 5.07,0.74 10.52,1 15.91,1.13 4.75,0.07 10.09,-0.23 14.34,-1.85 0.94,-0.37 1.74,-0.82 2.25,-1.24 0.52,-0.43 0.73,-0.75 0.83,-1.04 0.05,-0.15 0.09,-0.32 0.11,-0.56 0.01,-0.12 0,-0.84 -0.05,-1.3 -0.3,-4.87 -4.23,-9.72 -8.61,-11.61 -4.7,-1.89 -10.23,-2.09 -15.55,-3.67 -3.04,-0.87 -6.24,-2.23 -9.07,-4.24 -1.86,-1.32 -3.37,-2.76 -4.85,-4.46 -2.27,-3.07 -2.98,-6.66 -2.99,-10.26 -0.59,-15.63 21.41,-22.18 33.86,-23.62 17.88,-1.79 19.13,5.87 24.26,20.28 3.31,8.83 6.88,17.9 11.03,26.29 1.73,3.32 3.43,6.74 5.74,9.45 0.23,0.23 0.38,0.43 0.59,0.59 0.04,0.04 0.08,0.07 0.21,0.17 4.19,3.13 9.4,4.92 14.88,5.96 l -0.95,5.19 c 3.68,0.66 7.45,0.91 11.18,0.64 0.53,-0.06 1.08,0.02 1.56,-0.49 0.12,-0.08 0.24,-0.24 0.35,-0.41 l 0.33,-0.49 c 0.22,-0.32 0.42,-0.67 0.61,-1.01 0.38,-0.76 0.78,-1.14 1.23,-1.29 2.25,-0.82 4.76,-2.48 5.92,-4.18 1.41,-2.29 2.02,-4.6 1.16,-7.35 -0.26,-0.48 -0.13,-0.85 0.02,-1.4 0.45,-0.92 0.83,-1.98 1.06,-3.01 l -0.02,-0.5 c -0.02,-0.33 -0.16,-0.57 -0.35,-0.76 -1.82,-1.96 -3.95,-3.62 -6.15,-5.13 l -2.88,4.22 c -0.61,-0.41 -1.22,-0.81 -1.86,-1.2 l -0.95,-0.58 c -4.23,-2.51 -7.8,-2.66 -13.17,-3.61 -4.65,-0.77 -9.72,-2.59 -13.81,-5.3 -2.71,-1.95 -4.58,-4.9 -5.64,-7.89 -3.47,-9.25 2.57,-16.99 9.87,-21.93 5.92,-4.09 12.24,-6.85 18.83,-8.9 6.76,-2.04 13.69,-3.24 20.9,-2.8 15.85,0.51 12.07,16.81 7.77,26.82 -1.93,4.64 -4.53,9.18 -7,13.45 -6.5,11.14 -13.41,21.91 -20.05,32.88 -3.92,6.72 -8.08,12.99 -10.7,20.01 -0.89,3.46 -2.73,7.87 -2.3,11.25 0.04,0.21 0.06,0.11 -0.15,-0.16 -0.06,-0.06 -0.1,-0.12 -0.19,-0.18 -0.16,-0.21 -0.86,-0.52 -0.98,-0.51 3.21,-0.33 6.63,-2.18 10.01,-3.9 3.74,-1.94 8.1,-4.58 12,-5.9 4.62,-1.72 9.99,-3.69 14.51,-5.66 5.08,-2.15 10.6,-4.34 15,-7.29 -0.01,0.08 -0.17,0.15 -0.21,0.83 0.25,1.27 0.18,0.59 0.11,0.6 -1.02,-2.1 -1.53,-4.74 -0.4,-7.13 2.37,-5.14 12.04,-8.37 14.92,-2.11 1.56,3.73 0.52,8.47 -2.92,10.62 -1.79,0.86 -3.47,1.15 -5.32,1.22 -1.22,-0.05 -1.99,-0.04 -3.16,-0.78 -4.01,-3.53 5.15,-8.78 7.62,-10.55 5.53,-3.45 10.88,-6.77 16.27,-10.35 l 31.73,-21.37 c 5.25,-3.52 10.48,-7.05 15.41,-10.83 4.92,-3.88 10.49,-8.09 13.58,-13.28 0.2,-0.39 0.3,-0.72 0.3,-0.79 0,-0.1 -0.05,0.18 0.07,0.53 0.11,0.35 0.29,0.49 0.21,0.43 -0.14,-0.15 -1.1,-0.64 -2.2,-0.93 -3.73,-0.99 -8.27,-1.08 -12.06,-0.69 -17.4,2.01 -37.71,21.61 -25.18,39.01 3.63,5 9.34,9.32 15.33,11.61 4.61,1.51 9.38,2.61 14.17,3.32 10.62,1.46 24.01,1.68 31.7,-5.9 3.26,-3.35 4.88,-8.66 5.51,-14.47 1,-9.05 -0.05,-19.04 0.56,-28.59 0.25,-2.65 0.57,-5.66 1.44,-8.3 0,-0.03 0.13,-0.42 0.27,-0.75 0.53,-1.15 1.17,-2.16 1.93,-3.06 5.5,-6.45 13.62,-8.7 21.48,-8.67 l 2.45,0.05 h 7.14 c 7.3,0.25 15.47,-0.25 21.96,4.57 2.3,1.87 3.86,4.72 4.14,7.65 0.26,2.86 -0.38,5.18 -1.04,7.04 -1.4515,6.78418 -29.0737,5.399121 -32.9686,34.30182 -0.09,-0.24 -0.15,-0.08 0.47,0.23 0.59,0.31 1.7,0.58 2.91,0.71 3.74,0.41 7.92,-0.22 11.7,-0.89 7.11,-1.03 13.95,-1.2 21.01,-1.55 153.84,-3.27 336.5299,3.15945 490.3399,4.77945 l -0.049,8.89313 c -153.6,-1.15 -336.3211,-7.00258 -489.8611,-3.28258 -6.11,0.3 -12.69,0.56 -18.66,1.32 -5.22,0.87 -10.23,1.74 -15.6,1.17 -8.96,-0.7 -15.14,-7.2 -11.91,-16.19 7.8691,-32.14008 32.8286,-31.62182 33.1486,-35.40182 -0.03,-0.17 -0.06,-0.23 -0.11,-0.34 -0.03,-0.08 -0.04,-0.06 -0.06,-0.09 -0.02,-0.01 -0.03,-0.03 -0.05,-0.06 -0.39,-0.41 -1.29,-0.78 -2.49,-1.15 -5.33,-1.4 -11.98,-1.05 -17.68,-1.1 -1.24,0 -3.61,-0.02 -4.84,-0.06 -4.98,0 -10.68,1.24 -13.62,5.35 -0.01,0.01 0.03,-0.06 0.05,-0.11 0.06,-0.14 0.12,-0.34 0.07,-0.18 -0.63,1.92 -0.77,3.78 -0.97,5.88 -0.79,12.96 1.59,26.63 -2.9,39.58 -3.86,11.68 -14.71,18.02 -26.28,19.49 -12.2,1.62 -23.99,-0.13 -35.56,-3.51 -1.82,-0.53 -3.58,-1.26 -5.26,-2.07 -23.36,-11.44 -31.12,-36.02 -12.61,-55.85 7.67,-7.97 17.64,-13.21 28.61,-14.66 22.7,-2.37 37.67,9.76 15.7,28.31 -17.56,14.73 -37.96,25.38 -58.59,34.91 -5.41,2.52 -12.21,5.7 -17.31,8.33 -2.58,1.47 -6.05,3.17 -7.59,5.61 0,0.01 0,-0.07 -0.04,-0.16 -0.04,-0.09 -0.1,-0.14 -0.09,-0.13 0,0.03 0.25,0.13 0.52,0.17 1.59,0.23 3.56,-0.22 4.87,-0.97 2.42,-1.49 2.95,-8.12 -0.98,-8.04 -3.84,0.27 -8.19,3.25 -5.69,7.5 0,0.2 0.07,-0.32 0.33,1.16 -0.04,0.88 -0.3,1.14 -0.42,1.38 -1.92,2.44 -4.72,3.8 -7.13,5.57 -4.57,3 -11.59,7.61 -16.35,10.53 -1.46,0.94 -4.34,2.82 -5.73,3.61 -3.44,2.25 -6.77,4.42 -10.58,6.41 -3.74,1.98 -8.12,4.27 -12.79,5.08 -5.45,1.09 -10.5,-1.98 -11.57,-7.47 -0.8,-4.69 0.02,-8 1.03,-12.05 2.34,-9.98 8.07,-18.58 13.12,-27.26 6.59,-10.98 13.53,-21.76 19.99,-32.73 3.78,-6.43 7.42,-12.95 9.01,-20.22 0.37,-1.55 0.46,-2.96 0.26,-4.07 -0.02,-0.03 0.13,0.3 0.43,0.51 0.14,0.1 0.29,0.17 0.35,0.2 0.03,0.01 0.09,0.02 0.06,0.02 -6.18,-0.9 -12.71,0.2 -19.1,2.05 -6.33,1.83 -20.55,7.78 -22.18,14.49 -0.24,1.66 0.76,4.06 2,5.18 0.6,0.44 1.37,0.81 2.03,1.18 6.99,3.69 15.73,2.57 23.01,6.9 l 1.26,0.72 1.09,0.68 c 0.72,0.46 1.44,0.94 2.16,1.43 l -2.88,4.22 c 2.2,1.51 4.33,3.16 6.15,5.13 0.17,0.21 0.4,0.36 0.72,0.44 l 0.5,0.11 h 0.66 c 1.24,0.08 2.77,-0.08 3.8,0.76 1.13,1.39 1.8,3.04 2.3,4.85 1.87,7.7 -3.36,14.94 -10.73,16.57 -1.55,0.31 -3.07,0.84 -4.6,0.56 l -0.49,-0.21 c -0.17,-0.11 -0.34,-0.25 -0.5,-0.37 l -0.97,-0.77 -0.47,-0.38 c -0.16,-0.14 -0.31,-0.27 -0.45,-0.32 -0.59,-0.39 -1.1,-0.21 -1.64,-0.2 -3.74,0.22 -7.51,-0.12 -11.19,-0.79 l -0.95,5.19 c -6.92,-1.32 -13.7,-3.66 -19.45,-8.01 -4.43,-3.64 -6.96,-9.02 -9.5,-13.83 -4.42,-8.95 -7.99,-18.06 -11.46,-27.33 -0.42,-0.99 -1.08,-3.03 -1.46,-4.03 -1.2,-3.42 -2.02,-6.7 -3.96,-8.94 -0.16,-0.14 -0.24,-0.19 -0.27,-0.2 0.04,0.01 -0.17,-0.07 -0.34,-0.11 -2.07,-0.56 -4.62,-0.48 -7.3,-0.23 -7.14,0.83 -14.89,3.05 -20.81,7.11 -2.93,2.17 -3.68,3.38 -3.66,6.15 0.02,1.26 0.16,2.59 0.69,3.62 0.03,0.08 0.12,0.19 -0.05,-0.04 2.35,2.68 5.14,4.23 8.72,5.26 6.83,1.91 15.16,2 21.39,6.75 7.16,5.39 12.3,14.91 9.6,24 -5.6,14.34 -32.23,11.06 -44.64,9.71 -5.46,-0.9 -14.04,-2.31 -14.66,-9.54 -0.99,-13.04 19.48,-22.77 23.74,-7.45 2.62,10.47 -0.39,25.22 -8.93,32.39 -5.31,4.2 -12.46,4.43 -18.86,4.99 -56.81,1.63 -113.69,-0.51 -170.44,1.17 l -4.09,0.17 c 0.1,0 -0.91,0.05 -1.6,-0.07 -3.8,-0.63 -6.11,-4.07 -8.64,-6.41 -2.3,-2.19 -5.17,-4.92 -8.24,-2.98 -2.83,2.22 -4.4,5.4 -7.43,8.58 -4.69,5.49 -12.47,8 -19.55,6.64 -25.79,-4.77 -35.35,-42.7 -21.37,-62.65 8.91,-12.8 23.72,-20.32 39.11,-21.71 5.01,-0.29 10.78,0.13 15.32,3.43 13.05,10.71 -1.09,30.86 -9.61,39.94 -8.43,8.72 -18.41,15.61 -30.41,18.69 -10.8,2.67 -20.42,-0.04 -27.14,-9.34 -5.86,-7.34 -7.59,-17.88 -7.52,-26.56 0,-22.38 3.83,-49.88 22.03,-65.16 5.02,-3.83 10.48,-7.25 16.9,-8.47 3.24,-0.59 6.34,-0.7 9.28,-0.64 8.44,-0.07 12.68,3.04 16.97,9.87 0.05,0.05 0.08,0.08 -0.04,-0.03 -0.09,-0.06 -0.36,-0.25 -0.66,-0.31 -0.29,-0.1 -0.61,-0.09 -0.73,-0.09 2.68,-1.12 7.28,-3.11 10.37,-4.84 3.29,-1.88 6.74,-3.73 8.99,-6.54 0.07,-0.12 0.15,-0.23 0.22,-0.37 0.12,-0.23 0.13,-0.35 0.1,-0.19 -0.04,0.16 0.04,0.63 0.18,0.86 0.12,0.23 0.17,0.2 0,0.07 -0.34,-0.27 -1.25,-0.71 -2.28,-1.03 -10,-2.66 -21.05,-2.2 -31.47,-2.29 -16.57,0.12 -33.3,1.13 -50,0.85 -5.92,-0.17 -14.65,0.38 -17.6,6.05 -3.55,6.68 -4.43,14.25 -4.85,21.99 -0.65,16.13 1.17,33.1 1.24,49.56 0.38,9.41 -1.65,18.92 -7.39,26.59 -10.4,14.26 -31.95,10.69 -44.33,0.84 -14.41,-11.19 -11.97,-30.51 -2.12,-43.93 3.77,-5.24 9.51,-10.64 16.28,-11.47 3.48,-0.49 6.49,-0.19 8.67,-0.36 1.08,-0.07 1.86,-0.26 2.24,-0.45 0.4,-0.22 0.52,-0.31 0.96,-0.98 0.46,-0.85 0.91,-1.85 0.81,-2.65 -0.01,-0.01 -0.01,-0.03 0,-0.05 v 0 0.02 c -0.04,-0.05 -0.07,-0.11 -0.11,-0.17 -1.79,-2.67 -6.16,-4.12 -9.26,-3.01 -7.44,2.19 -11.31,9.75 -17.45,14.49 -7.14,5.97 -16.26,8.66 -25.28,10.18 -2.8,0.34 -7.13,0.91 -9.94,-1.59 -1.44,-1.24 -2.18,-3.53 -2.18,-5.34 -0.1,-4.28 1.58,-7.63 4.13,-10.72 0.84,-1.13 2.86,-3.44 2.94,-4.39 -0.01,0.03 0.03,0.25 0.07,0.32 0.04,0.08 0,-0.01 -0.18,-0.19 -0.37,-0.36 -1.24,-0.88 -2.22,-1.31 -1.65,-0.75 -3.84,-1.08 -6.15,-1.07 -11.51,0.36 -24.38,6.6 -27.74,18.34 -4.12,15.56 -1.22,32.38 -2.28,48.55 -0.47,6.4 -1.09,12.6 -5.08,18.39 -2.42,3.43 -7.11,3.86 -10.75,4.56 -14.05,1.97 -28.19,2.07 -42.2,2.17 -11.17,-0.02 -22.33,-0.29 -33.54,-1.06 -7.16,-0.62 -14.53,-0.95 -21.73,-3.11 -1.21,-0.37 -3.29,-1.3 -4.46,-2.86 -2.31,-3.16 -3.97,-7 -4.86,-10.55 -4.09,-16.85 -0.81,-36.09 5.71,-51.85 2.2,-5.32 5.6,-10.61 9.03,-15.14 3.31,-4.47 6.49,-8.66 7.45,-12.66 1.03,-4.01 -0.34,-8.53 -2.75,-11.82 -1.19,-1.69 -2.85,-2.88 -3.7,-2.98 -0.4,-0.06 -0.67,-0.06 -1.28,0.2 -0.58,0.26 -1.33,0.78 -2.07,1.49 -3.06,2.94 -5.59,7.88 -8.22,12.67 -7.8,14.45 -14.43,29.63 -20.91,44.79 -2.2,5.1 -4.37,10.21 -6.83,15.36 -1.64,3.27 -3.31,6.92 -5.89,9.99 -0.66,0.73 -1.38,1.56 -2.88,2.4 -0.78,0.4 -1.82,0.83 -3.23,0.82 -1.39,0 -2.66,-0.55 -3.47,-1.1 -1.63,-1.16 -2.2,-2.19 -2.76,-3.07 -3.09,-5.66 -3.6,-11.53 -4.84,-17.56 -3.29,-19.17 -4.27,-38.32 -8.61,-57.12 -0.32,-1.26 -0.67,-2.48 -1.06,-3.62 -0.38,-1.12 -0.85,-2.21 -1.25,-2.84 -0.17,-0.3 -0.38,-0.45 -0.13,-0.25 0.13,0.09 0.45,0.28 0.93,0.37 0.48,0.09 0.98,0 1.24,-0.09 0.53,-0.22 0.33,-0.21 0.15,0.02 -1.76,2.06 -2.83,4.76 -4.08,7.62 -7.99,20.49 -12.38,42.33 -19.56,63.26 -1.57,4.02 -2.87,8.87 -6.36,12.17 -0.33,0.28 -0.74,0.58 -1.31,0.87 -0.58,0.29 -1.34,0.57 -2.29,0.62 -0.98,0.05 -1.92,-0.17 -2.59,-0.47 -0.65,-0.29 -1.16,-0.65 -1.52,-0.95 -0.75,-0.64 -1.14,-1.16 -1.49,-1.65 -2.4,-3.55 -3.11,-7.3 -4.27,-11.17 -2.12,-8.21 -3.58,-16.53 -5.01,-24.82 -2.8,-16.45 -5.01,-32.9 -7.57,-49.33 -0.89,-5.1 -1.36,-10.11 -3.83,-14.45 -2.18,-3.94 -5.54,-6.48 -9.9,-7.36 -4.54,-0.96 -9.87,-0.21 -14.83,1.31 -0.59,0 -466.17,2.16 -466.81,2.16 l -0.04,-9 z"
       id="path20"
       sodipodi:nodetypes="ccccccccccccccccccccccccccccccccccccccccccccccccccccccccccccccccccccccccccccccccccccccccccccccccccccccccccccccccccccsccccccccccccccccccccccccccccccccccccccccccccccccccccccccccccscccccccccccccccccccccccccccccccccccccccccccccccccccscccccccccccccccccccccccccccccccccccccccccccccccccccccccccccccccccccccccccccccccccccccccccccccccccccccccccccscccccccccccccccccccccccccccccccccccccccccccsccccccccccccccccccc" />
  </g>
</svg>
